<svg width="28" height="28" viewBox="0 0 28 28" fill="none" xmlns="http://www.w3.org/2000/svg">
<path d="M18.1834 19.143C18.1769 20.0369 17.4472 20.7565 16.5532 20.7506C15.6622 20.7477 14.9419 20.0231 14.9449 19.1313V19.1211C14.9514 18.2264 15.6811 17.507 16.5751 17.5127C17.4691 17.5186 18.1893 18.2483 18.1834 19.143Z" stroke="#2F2E2A" stroke-width="1.5" stroke-linecap="round" stroke-linejoin="round"/>
<path d="M13.1356 14.0109C13.129 14.9055 12.3993 15.6251 11.5053 15.6192C10.6143 15.6163 9.89406 14.891 9.89698 14V13.989C9.90355 13.095 10.6333 12.3748 11.5272 12.3814C12.4212 12.3872 13.1414 13.1169 13.1356 14.0109Z" stroke="#2F2E2A" stroke-width="1.5" stroke-linecap="round" stroke-linejoin="round"/>
<path d="M17.8788 8.88029C17.8722 9.77422 17.1424 10.4938 16.2485 10.4879C15.3575 10.485 14.6372 9.76036 14.6401 8.86861V8.8584C14.6467 7.96373 15.3765 7.24419 16.2704 7.25004C17.1643 7.25587 17.8846 7.98562 17.8788 8.88029Z" stroke="#2F2E2A" stroke-width="1.5" stroke-linecap="round" stroke-linejoin="round"/>
<path d="M7.75098 19.1313H14.9448M18.1854 19.1313H20.2477" stroke="#2F2E2A" stroke-width="1.5" stroke-linecap="round" stroke-linejoin="round"/>
<path d="M7.75098 14.0015H9.8957M13.1357 14.0015H20.2478" stroke="#2F2E2A" stroke-width="1.5" stroke-linecap="round" stroke-linejoin="round"/>
<path d="M7.75098 8.86865H14.6368M17.8762 8.86865H20.2471" stroke="#2F2E2A" stroke-width="1.5" stroke-linecap="round" stroke-linejoin="round"/>
</svg>
