<svg width="28" height="28" viewBox="0 0 28 28" fill="none" xmlns="http://www.w3.org/2000/svg">
<path fill-rule="evenodd" clip-rule="evenodd" d="M9.5 14C9.5 14.414 9.164 14.75 8.75 14.75C8.336 14.75 8 14.414 8 14C8 13.586 8.336 13.25 8.75 13.25C9.164 13.25 9.5 13.586 9.5 14Z" stroke="#2F2E2A" stroke-width="1.5" stroke-linecap="round" stroke-linejoin="round"/>
<path fill-rule="evenodd" clip-rule="evenodd" d="M14.75 14C14.75 14.414 14.414 14.75 14 14.75C13.586 14.75 13.25 14.414 13.25 14C13.25 13.586 13.586 13.25 14 13.25C14.414 13.25 14.75 13.586 14.75 14Z" stroke="#2F2E2A" stroke-width="1.5" stroke-linecap="round" stroke-linejoin="round"/>
<path fill-rule="evenodd" clip-rule="evenodd" d="M20 14C20 14.414 19.664 14.75 19.25 14.75C18.836 14.75 18.5 14.414 18.5 14C18.5 13.586 18.836 13.25 19.25 13.25C19.664 13.25 20 13.586 20 14Z" stroke="#2F2E2A" stroke-width="1.5" stroke-linecap="round" stroke-linejoin="round"/>
</svg>
